<svg xmlns="http://www.w3.org/2000/svg" width="126.995" height="109.521" viewBox="0 0 126.995 109.521"><defs><style>.a{fill:#51bd46;stroke:#707070;}.b{fill:#013668;stroke:#013668;}</style></defs><g transform="translate(0.5 0.504)"><path class="a" d="M971.658,728.791h18.174v-53.1s-18.528-20.416-18.174-22.068S971.658,728.791,971.658,728.791Z" transform="translate(-959.071 -632.141)"/><path class="a" d="M1055,746.258l18.675,11.592v30L1055,789.182Z" transform="translate(-1012.911 -692)"/><path class="a" d="M1140.167,797.5l3.481,1.062,7.258,2.6,7.317,2.183v18.115l-18.056.531Z" transform="translate(-1067.926 -725.101)"/><path class="a" d="M1224.333,820.5l4.72,1.239,8.792.826h4.661v13.571h-17.288Z" transform="translate(-1122.295 -739.958)"/><g transform="translate(0 6.099)"><path class="b" d="M719.371,202.349H595.111a.867.867,0,0,1-.867-.868V100.8a.868.868,0,1,1,1.735,0v99.815H719.371a.868.868,0,1,1,0,1.735Z" transform="translate(-594.244 -99.931)"/></g><g transform="translate(11.559 20.06)"><path class="b" d="M646.213,217H627.762a.867.867,0,0,1-.868-.868v-75.9a.869.869,0,0,1,1.6-.469,133.79,133.79,0,0,0,18.331,22.658.865.865,0,0,1,.257.615v53.1A.867.867,0,0,1,646.213,217Zm-17.583-1.735h16.716V163.4a135.674,135.674,0,0,1-16.716-20.265Z" transform="translate(-626.894 -139.366)"/></g><g transform="translate(41.457 53.002)"><path class="b" d="M730.663,277.111h-18.45a.867.867,0,0,1-.868-.868V233.282a.867.867,0,0,1,1.4-.681,133.813,133.813,0,0,0,18.331,12.14.867.867,0,0,1,.45.761v30.74A.867.867,0,0,1,730.663,277.111Zm-17.583-1.735H729.8V246.014a135.736,135.736,0,0,1-16.715-10.958Z" transform="translate(-711.345 -232.415)"/></g><g transform="translate(71.355 70.814)"><path class="b" d="M815.111,309.611H796.661a.867.867,0,0,1-.868-.868V283.6a.866.866,0,0,1,1.211-.8,131.983,131.983,0,0,0,18.33,6.345.868.868,0,0,1,.645.839v18.76A.867.867,0,0,1,815.111,309.611Zm-17.583-1.735h16.716V290.649a133.607,133.607,0,0,1-16.716-5.742Z" transform="translate(-795.793 -282.727)"/></g><g transform="translate(101.253 79.707)"><path class="b" d="M899.561,325.837H881.113a.867.867,0,0,1-.868-.868V308.717a.875.875,0,0,1,.308-.664.836.836,0,0,1,.707-.19,134.119,134.119,0,0,0,18.33,1.88.869.869,0,0,1,.839.867v14.36A.867.867,0,0,1,899.561,325.837ZM881.98,324.1h16.713V311.447a135.86,135.86,0,0,1-16.713-1.7Z" transform="translate(-880.245 -307.846)"/></g><g transform="translate(14.771 0)"><path class="b" d="M740.586,153.409a.254.254,0,0,1-.04,0A121.919,121.919,0,0,1,636.052,83.946a.867.867,0,0,1,1.566-.746,120.19,120.19,0,0,0,103.008,68.475.868.868,0,0,1-.041,1.734Z" transform="translate(-635.968 -82.705)"/></g><g transform="translate(111.879 62.326)"><path class="b" d="M911.126,273.772a.868.868,0,0,1-.614-1.481l6.03-6.03-6.03-6.03A.868.868,0,1,1,911.74,259l6.643,6.643a.868.868,0,0,1,0,1.227l-6.643,6.643A.865.865,0,0,1,911.126,273.772Z" transform="translate(-910.258 -258.75)"/></g></g></svg>