<svg xmlns="http://www.w3.org/2000/svg" width="92.999" height="92.999" viewBox="0 0 92.999 92.999"><defs><style>.a{fill:#fde039;}.a,.b{stroke:#707070;}.b{fill:#e8af2e;}.c{fill:#013668;}.d{stroke:none;}.e{fill:none;}</style></defs><g class="a" transform="translate(7.499 9)"><ellipse class="d" cx="18" cy="17.5" rx="18" ry="17.5"/><ellipse class="e" cx="18" cy="17.5" rx="17.5" ry="17"/></g><g class="b" transform="translate(49.499 49)"><ellipse class="d" cx="18" cy="17.5" rx="18" ry="17.5"/><ellipse class="e" cx="18" cy="17.5" rx="17.5" ry="17"/></g><g transform="translate(-1.999 -1.999)"><path class="c" d="M28.114,54.227A26.114,26.114,0,1,1,54.227,28.114,26.114,26.114,0,0,1,28.114,54.227Zm0-49.569A23.457,23.457,0,1,0,51.569,28.114,23.457,23.457,0,0,0,28.114,4.657Z"/><path class="c" d="M29.2,35.073H17.89a1.329,1.329,0,0,1-.8-2.391,3.483,3.483,0,0,0,1.386-2.495l.946-12.051a5,5,0,0,1,9.98.417v.5a1.329,1.329,0,0,1-2.657,0v-.5a2.342,2.342,0,0,0-4.675-.2L21.13,30.4a6.154,6.154,0,0,1-.525,2.014H29.2a1.329,1.329,0,1,1,0,2.657Z" transform="translate(4.784 3.801)"/><path class="c" d="M23.594,23.9H17.568a1.329,1.329,0,0,1,0-2.657h6.026a1.329,1.329,0,0,1,0,2.657Z" transform="translate(4.678 6.321)"/><path class="c" d="M57.139,76.529a19.39,19.39,0,1,1,19.39-19.39,19.39,19.39,0,0,1-19.39,19.39Zm0-36.122A16.733,16.733,0,1,0,73.872,57.14,16.733,16.733,0,0,0,57.139,40.407Z" transform="translate(11.745 11.745)"/><path class="c" d="M26.451,45.84A19.39,19.39,0,1,1,45.84,26.451,19.39,19.39,0,0,1,26.451,45.84Zm0-36.122a16.733,16.733,0,1,0,16.732,16.74A16.733,16.733,0,0,0,26.451,9.718Z" transform="translate(1.663 1.663)"/><path class="c" d="M58.8,84.916A26.114,26.114,0,1,1,84.916,58.8,26.114,26.114,0,0,1,58.8,84.916Zm0-49.569A23.457,23.457,0,1,0,82.258,58.8,23.457,23.457,0,0,0,58.8,35.346Z" transform="translate(10.083 10.083)"/><path class="c" d="M53.87,66.069A6.172,6.172,0,0,1,47.7,59.9a1.329,1.329,0,0,1,2.657,0,3.51,3.51,0,1,0,3.509-3.51,6.166,6.166,0,1,1,6.171-6.169,1.329,1.329,0,0,1-2.657,0,3.51,3.51,0,1,0-3.51,3.509,6.167,6.167,0,1,1,0,12.333Z" transform="translate(15.015 13.819)"/><path class="c" d="M52.673,47.179a1.329,1.329,0,0,1-1.329-1.329v-1.86a1.329,1.329,0,0,1,2.657,0v1.86A1.329,1.329,0,0,1,52.673,47.179Z" transform="translate(16.212 13.359)"/><path class="c" d="M52.673,63.144a1.329,1.329,0,0,1-1.329-1.329v-1.86a1.329,1.329,0,0,1,2.657,0v1.86A1.329,1.329,0,0,1,52.673,63.144Z" transform="translate(16.212 18.605)"/><path class="c" d="M31.274,72.2H9.012a1.329,1.329,0,0,1-1.329-1.329V50.129a1.329,1.329,0,1,1,2.657,0V69.548H31.274a1.329,1.329,0,0,1,0,2.657Z" transform="translate(1.867 15.376)"/><path class="c" d="M5.32,57.276A1.329,1.329,0,0,1,4.3,55.092l4.9-5.826a1.374,1.374,0,0,1,2.033,0l4.906,5.826A1.329,1.329,0,0,1,14.113,56.8l-3.889-4.618L6.336,56.8a1.329,1.329,0,0,1-1.016.473Z" transform="translate(0.654 15.381)"/><path class="c" d="M71.151,30.988a1.329,1.329,0,0,1-1.329-1.329V10.24H48.889a1.329,1.329,0,0,1,0-2.657H71.151a1.329,1.329,0,0,1,1.329,1.329V29.659A1.329,1.329,0,0,1,71.151,30.988Z" transform="translate(14.969 1.835)"/><path class="c" d="M66.859,27.3a1.328,1.328,0,0,1-1.016-.473L60.936,21a1.329,1.329,0,1,1,2.034-1.711l3.889,4.618,3.889-4.618A1.329,1.329,0,1,1,72.78,21l-4.9,5.826a1.329,1.329,0,0,1-1.016.472Z" transform="translate(19.261 5.525)"/></g></svg>