<svg xmlns="http://www.w3.org/2000/svg" width="72" height="72" viewBox="0 0 72 72"><defs><style>.a{fill:#fff;stroke:#eae3e3;}.b{fill:#51bd46;}.c{stroke:none;}.d{fill:none;}</style></defs><g class="a"><circle class="c" cx="36" cy="36" r="36"/><circle class="d" cx="36" cy="36" r="35.5"/></g><g transform="translate(17 13.917)"><path class="b" d="M19.689,18.084a7,7,0,1,0-7-7A7.008,7.008,0,0,0,19.689,18.084Zm0-12.688A5.688,5.688,0,1,1,14,11.083,5.694,5.694,0,0,1,19.689,5.4ZM32.332,26.527a7,7,0,1,0,7,7A7.008,7.008,0,0,0,32.332,26.527Zm0,12.688a5.688,5.688,0,1,1,5.689-5.688A5.695,5.695,0,0,1,32.332,39.216ZM7,26.527a7,7,0,1,0,7,7A7.008,7.008,0,0,0,7,26.527ZM7,39.216a5.688,5.688,0,1,1,5.688-5.688A5.695,5.695,0,0,1,7,39.216ZM24.619,17.687l4.48,7.78-1.138.656-4.48-7.78Zm-10.59,0,1.138.655-4.479,7.781L9.55,25.466Zm1.418,15.186h8.6v1.312h-8.6Zm3.317-20.785h1.923l.685,2.017h1.4L20.418,7.2H19.069l-2.345,6.9H18.1Zm.856-2.672c.035-.107.068-.217.1-.332.034.112.07.228.11.346l.519,1.523H19.1ZM8.711,33.209A1.676,1.676,0,0,0,9.47,31.82,1.576,1.576,0,0,0,8.847,30.5a2.882,2.882,0,0,0-1.914-.521,8.175,8.175,0,0,0-1.563.139l-.194.04v6.72l.21.029a9.684,9.684,0,0,0,1.319.08,3.445,3.445,0,0,0,2.387-.669,1.966,1.966,0,0,0,.617-1.461A1.821,1.821,0,0,0,8.711,33.209ZM6.492,31.125A4.481,4.481,0,0,1,6.98,31.1c1.164,0,1.164.583,1.164.8,0,.506-.449.832-1.145.832H6.492V31.125Zm.45,4.724c-.182,0-.331,0-.45-.012V33.854h.441c.527,0,1.412.128,1.412.993C8.344,35.675,7.582,35.849,6.942,35.849Zm23.343-2.288a2.1,2.1,0,0,0,2.22,2.335,3.058,3.058,0,0,0,1.245-.243l.268-.13.3,1.138-.178.088a4.332,4.332,0,0,1-1.8.33,3.234,3.234,0,0,1-3.412-3.489,3.448,3.448,0,0,1,3.594-3.613,3.6,3.6,0,0,1,1.636.314l.178.093-.338,1.144-.259-.126a2.725,2.725,0,0,0-1.186-.242A2.143,2.143,0,0,0,30.285,33.561Z"/></g></svg>