<svg xmlns="http://www.w3.org/2000/svg" width="72" height="72" viewBox="0 0 72 72"><defs><style>.a{fill:#fff;stroke:#eae3e3;}.b,.c{fill:#51bd46;}.c{stroke:#51bd46;stroke-width:0.5px;}.d{stroke:none;}.e{fill:none;}</style></defs><g class="a"><circle class="d" cx="36" cy="36" r="36"/><circle class="e" cx="36" cy="36" r="35.5"/></g><g transform="translate(-400.991 -1362.594)"><g transform="translate(417.991 1376.767)"><path class="b" d="M86.129,290.836H84.64V279.218a.593.593,0,0,0-1.186,0v11.618H80.477V274.459h2.977v1.993a.593.593,0,0,0,1.186,0v-2.27a.91.91,0,0,0-.909-.909H80.2a.91.91,0,0,0-.909.909v16.654h-1V281.65a.91.91,0,0,0-.909-.909H73.852a.91.91,0,0,0-.909.909v9.186h-1V277.591a.91.91,0,0,0-.909-.909H67.5a.91.91,0,0,0-.909.909v13.245h-1v-3.161a.593.593,0,0,0-1.186,0v3.161H61.432V274.33H64.41v10.579a.593.593,0,0,0,1.186,0V274.053a.91.91,0,0,0-.909-.909H61.156a.91.91,0,0,0-.909.909v16.783h-1v-9.289a.91.91,0,0,0-.909-.909H54.807a.91.91,0,0,0-.909.909v9.289H52.41a.593.593,0,0,0,0,1.186H86.129a.593.593,0,0,0,0-1.186Zm-28.068,0H55.084v-9.012h2.977Zm12.7,0H67.781V277.868h2.977Zm6.348,0H74.129v-8.909h2.977Z" transform="translate(-48.093 -251.556)"/><path class="b" d="M15.176,86.134l-.542.525a2.673,2.673,0,1,0,.825.852L16,86.987a5.494,5.494,0,0,0,7.493-.422l6.3,4.853a2.674,2.674,0,1,0,4.665-.339l2.722-2.811a2.681,2.681,0,1,0-.851-.825L33.6,90.254a2.669,2.669,0,0,0-3.09.225l-6.3-4.851a5.5,5.5,0,0,0,.4-4.963.593.593,0,1,0-1.1.451,4.314,4.314,0,0,1-.247,3.783l-1.324-1.02a2.674,2.674,0,1,0-4.713.265l-1.2,1.162a4.309,4.309,0,0,1-.514-4.178h.325a.971.971,0,0,0,.97-.97v-.764a4.31,4.31,0,0,1,5.17-.185.593.593,0,0,0,.677-.973,5.5,5.5,0,0,0-5.847-.272V76.238a.972.972,0,0,0-.97-.97H5.662a.971.971,0,0,0-.97.97v3.919a.972.972,0,0,0,.97.97h8.6C14.1,81.642,14.448,85.2,15.176,86.134Zm-2,4.251A1.489,1.489,0,1,1,14.661,88.9,1.49,1.49,0,0,1,13.172,90.386Zm25.393-5.891a1.489,1.489,0,1,1-1.489,1.489A1.49,1.49,0,0,1,38.565,84.494Zm-6.348,6.556a1.489,1.489,0,1,1-1.489,1.489A1.49,1.49,0,0,1,32.217,91.051Zm-12.7-9.783a1.489,1.489,0,1,1-1.489,1.489A1.49,1.49,0,0,1,19.52,81.268Zm-1.461,3.727a2.667,2.667,0,0,0,3.164-.178l1.324,1.02a4.31,4.31,0,0,1-5.689.319ZM5.877,79.941V76.452h9.752v3.489Z" transform="translate(-4.692 -69.318)"/></g><g transform="translate(438.952 1380.594)"><g transform="translate(0 0)"><path class="c" d="M13.581,110.477c-.107-.156-2.687-3.815-6.765-3.815-3.5,0-6.617,3.637-6.749,3.792a.285.285,0,0,0,0,.367c.131.155,3.249,3.792,6.749,3.792s6.617-3.637,6.749-3.792A.284.284,0,0,0,13.581,110.477Zm-6.765,3.569c-2.805,0-5.472-2.675-6.15-3.408.676-.733,3.341-3.408,6.15-3.408,3.282,0,5.6,2.671,6.165,3.393C12.327,111.332,9.645,114.046,6.816,114.046Z" transform="translate(0 -106.662)"/></g><g transform="translate(4.544 1.704)"><path class="c" d="M172.934,170.662a2.272,2.272,0,1,0,2.272,2.272A2.274,2.274,0,0,0,172.934,170.662Zm0,3.976a1.7,1.7,0,1,1,1.7-1.7A1.706,1.706,0,0,1,172.934,174.638Z" transform="translate(-170.662 -170.662)"/></g></g></g></svg>