<svg xmlns="http://www.w3.org/2000/svg" width="78.316" height="105.145" viewBox="0 0 78.316 105.145"><defs><style>.a{fill:#013668;}</style></defs><path class="a" d="M141.584,42.5a2.054,2.054,0,0,0-2.054,2.054V60.488H121.64V10.136h17.891V26.071a2.054,2.054,0,0,0,4.107,0V8.082a2.054,2.054,0,0,0-2.054-2.054H77.644V2.054A2.054,2.054,0,0,0,75.59,0H67.376a2.054,2.054,0,0,0-2.054,2.054V103.092a2.054,2.054,0,0,0,2.054,2.054H75.59a2.054,2.054,0,0,0,2.054-2.054V64.6h63.941a2.054,2.054,0,0,0,2.054-2.054V44.553a2.054,2.054,0,0,0-2.054-2.053ZM117.533,60.488H99.642V10.136h17.891V60.488Zm-44,40.55H69.429V4.107h4.107Zm4.107-90.9H95.535V60.488H77.644Z" transform="translate(-65.322)"/><circle class="a" cx="2.054" cy="2.054" r="2.054" transform="translate(74.209 33.259)"/></svg>