<svg xmlns="http://www.w3.org/2000/svg" width="72" height="72" viewBox="0 0 72 72"><defs><style>.a{fill:#fff;stroke:#eae3e3;}.b{fill:#51bd46;}.c{stroke:none;}.d{fill:none;}</style></defs><g class="a"><circle class="c" cx="36" cy="36" r="36"/><circle class="d" cx="36" cy="36" r="35.5"/></g><g transform="translate(17 17)"><path class="b" d="M84.783,17.664a2.781,2.781,0,0,0,2.486-4.033l4.1-3.233a2.776,2.776,0,0,0,3.584.008L99,13.621a2.783,2.783,0,1,0,4.482-.671l5.225-7.6a2.794,2.794,0,1,0-.917-.632l-5.225,7.6a2.778,2.778,0,0,0-2.873.431L95.65,9.535a2.783,2.783,0,1,0-4.966-.011l-4.1,3.233a2.782,2.782,0,1,0-1.8,4.907ZM109.795,1.113a1.67,1.67,0,1,1-1.67,1.67A1.672,1.672,0,0,1,109.795,1.113Zm-8.312,12.1a1.67,1.67,0,1,1-1.67,1.67A1.672,1.672,0,0,1,101.482,13.211ZM93.17,6.605a1.67,1.67,0,1,1-1.67,1.67A1.672,1.672,0,0,1,93.17,6.605Zm-8.387,6.605a1.67,1.67,0,1,1-1.67,1.67A1.672,1.672,0,0,1,84.783,13.211Z" transform="translate(-75.914 0)"/><path class="b" d="M37.443,393.029H19.594a.557.557,0,0,0,0,1.113H36.887v1.484H1.67a.558.558,0,0,1-.557-.557v-7.014a.557.557,0,0,0-1.113,0v7.014a1.671,1.671,0,0,0,1.67,1.67H37.443a.557.557,0,0,0,.557-.557v-2.6A.557.557,0,0,0,37.443,393.029Z" transform="translate(0 -358.74)"/><path class="b" d="M.557,27.35a.557.557,0,0,0,.557-.557V1.113H2.6V34.846a.557.557,0,0,0,.557.557H17.07a.557.557,0,1,0,0-1.113H3.711V.557A.557.557,0,0,0,3.154,0H.557A.557.557,0,0,0,0,.557V26.793A.557.557,0,0,0,.557,27.35Z"/><path class="b" d="M89.557,284a.557.557,0,0,0-.557.557v10.391a.557.557,0,0,0,.557.557h3.711a.557.557,0,0,0,.557-.557V284.557a.557.557,0,0,0-.557-.557Zm3.154,10.391h-2.6v-9.277h2.6Z" transform="translate(-82.395 -262.922)"/><path class="b" d="M200.557,195a.557.557,0,0,0-.557.557v17a.557.557,0,0,0,.557.557h3.711a.557.557,0,0,0,.557-.557v-17a.557.557,0,0,0-.557-.557Zm3.154,17h-2.6V196.113h2.6Z" transform="translate(-185.156 -180.527)"/><path class="b" d="M312.557,284a.557.557,0,0,0-.557.557v10.391a.557.557,0,0,0,.557.557h3.711a.557.557,0,0,0,.557-.557V284.557a.557.557,0,0,0-.557-.557Zm3.154,10.391h-2.6v-9.277h2.6Z" transform="translate(-288.844 -262.922)"/><path class="b" d="M424.557,121a.557.557,0,0,0-.557.557v22.488a.557.557,0,0,0,.557.557h3.711a.557.557,0,0,0,.557-.557V121.557a.557.557,0,0,0-.557-.557Zm3.154,22.488h-2.6V122.113h2.6Z" transform="translate(-392.531 -112.02)"/></g></svg>